<mxfile host="app.diagrams.net" modified="2022-12-07T08:06:43.244Z" agent="5.0 (Windows NT 10.0; Win64; x64) AppleWebKit/537.36 (KHTML, like Gecko) Chrome/108.0.0.0 Safari/537.36" version="20.6.0" etag="doX3xcNFMLNTSk77gTiI" type="github">
  <diagram id="UlfH0z7l-Fw2T3nxiZSq" name="Page-1">
    <mxGraphModel dx="981" dy="573" grid="1" gridSize="10" guides="1" tooltips="1" connect="1" arrows="1" fold="1" page="1" pageScale="1" pageWidth="850" pageHeight="1100" math="0" shadow="0">
      <root>
        <mxCell id="0" />
        <mxCell id="1" parent="0" />
        <mxCell id="YZU04UB36HN_YHUM8Txj-4" value="" style="edgeStyle=orthogonalEdgeStyle;rounded=0;orthogonalLoop=1;jettySize=auto;html=1;" edge="1" parent="1">
          <mxGeometry relative="1" as="geometry">
            <mxPoint x="425" y="60" as="sourcePoint" />
            <mxPoint x="425" y="90" as="targetPoint" />
          </mxGeometry>
        </mxCell>
        <mxCell id="YZU04UB36HN_YHUM8Txj-1" value="START" style="strokeWidth=2;html=1;shape=mxgraph.flowchart.start_1;whiteSpace=wrap;" vertex="1" parent="1">
          <mxGeometry x="375" y="20" width="100" height="40" as="geometry" />
        </mxCell>
        <mxCell id="YZU04UB36HN_YHUM8Txj-12" style="edgeStyle=orthogonalEdgeStyle;rounded=0;orthogonalLoop=1;jettySize=auto;html=1;entryX=0.5;entryY=0;entryDx=0;entryDy=0;" edge="1" parent="1" source="YZU04UB36HN_YHUM8Txj-3" target="YZU04UB36HN_YHUM8Txj-10">
          <mxGeometry relative="1" as="geometry" />
        </mxCell>
        <mxCell id="YZU04UB36HN_YHUM8Txj-3" value="Welcome&lt;br&gt;Screen" style="strokeWidth=2;html=1;shape=mxgraph.flowchart.decision;whiteSpace=wrap;" vertex="1" parent="1">
          <mxGeometry x="375" y="90" width="100" height="100" as="geometry" />
        </mxCell>
        <mxCell id="YZU04UB36HN_YHUM8Txj-9" style="edgeStyle=orthogonalEdgeStyle;rounded=0;orthogonalLoop=1;jettySize=auto;html=1;entryX=0.5;entryY=0;entryDx=0;entryDy=0;entryPerimeter=0;" edge="1" parent="1" source="YZU04UB36HN_YHUM8Txj-7" target="YZU04UB36HN_YHUM8Txj-8">
          <mxGeometry relative="1" as="geometry" />
        </mxCell>
        <mxCell id="YZU04UB36HN_YHUM8Txj-7" value="Welcome [N]" style="strokeWidth=2;html=1;shape=mxgraph.flowchart.start_2;whiteSpace=wrap;" vertex="1" parent="1">
          <mxGeometry x="665" y="120" width="60" height="60" as="geometry" />
        </mxCell>
        <mxCell id="YZU04UB36HN_YHUM8Txj-8" value="END" style="strokeWidth=2;html=1;shape=mxgraph.flowchart.start_1;whiteSpace=wrap;" vertex="1" parent="1">
          <mxGeometry x="645" y="200" width="100" height="40" as="geometry" />
        </mxCell>
        <mxCell id="YZU04UB36HN_YHUM8Txj-15" style="edgeStyle=orthogonalEdgeStyle;rounded=0;orthogonalLoop=1;jettySize=auto;html=1;entryX=0.5;entryY=0;entryDx=0;entryDy=0;" edge="1" parent="1" source="YZU04UB36HN_YHUM8Txj-10" target="YZU04UB36HN_YHUM8Txj-14">
          <mxGeometry relative="1" as="geometry" />
        </mxCell>
        <mxCell id="YZU04UB36HN_YHUM8Txj-10" value="Loading Screen" style="shape=parallelogram;html=1;strokeWidth=2;perimeter=parallelogramPerimeter;whiteSpace=wrap;rounded=1;arcSize=12;size=0.23;" vertex="1" parent="1">
          <mxGeometry x="343" y="210" width="165" height="60" as="geometry" />
        </mxCell>
        <mxCell id="YZU04UB36HN_YHUM8Txj-18" style="edgeStyle=orthogonalEdgeStyle;rounded=0;orthogonalLoop=1;jettySize=auto;html=1;entryX=0.5;entryY=0;entryDx=0;entryDy=0;entryPerimeter=0;" edge="1" parent="1" source="YZU04UB36HN_YHUM8Txj-14" target="YZU04UB36HN_YHUM8Txj-17">
          <mxGeometry relative="1" as="geometry" />
        </mxCell>
        <mxCell id="YZU04UB36HN_YHUM8Txj-14" value="Press any key &lt;br&gt;to Proceed" style="shape=parallelogram;html=1;strokeWidth=2;perimeter=parallelogramPerimeter;whiteSpace=wrap;rounded=1;arcSize=12;size=0.23;" vertex="1" parent="1">
          <mxGeometry x="343" y="290" width="165" height="60" as="geometry" />
        </mxCell>
        <mxCell id="YZU04UB36HN_YHUM8Txj-22" style="edgeStyle=orthogonalEdgeStyle;rounded=0;orthogonalLoop=1;jettySize=auto;html=1;entryX=0;entryY=0.5;entryDx=0;entryDy=0;entryPerimeter=0;" edge="1" parent="1" source="YZU04UB36HN_YHUM8Txj-17" target="YZU04UB36HN_YHUM8Txj-19">
          <mxGeometry relative="1" as="geometry">
            <Array as="points">
              <mxPoint x="510" y="420" />
              <mxPoint x="510" y="420" />
            </Array>
          </mxGeometry>
        </mxCell>
        <mxCell id="YZU04UB36HN_YHUM8Txj-27" value="Round-Trip" style="edgeLabel;html=1;align=center;verticalAlign=middle;resizable=0;points=[];" vertex="1" connectable="0" parent="YZU04UB36HN_YHUM8Txj-22">
          <mxGeometry x="-0.6225" y="1" relative="1" as="geometry">
            <mxPoint x="27" y="1" as="offset" />
          </mxGeometry>
        </mxCell>
        <mxCell id="YZU04UB36HN_YHUM8Txj-25" style="edgeStyle=orthogonalEdgeStyle;rounded=0;orthogonalLoop=1;jettySize=auto;html=1;entryX=1;entryY=0.5;entryDx=0;entryDy=0;entryPerimeter=0;" edge="1" parent="1" source="YZU04UB36HN_YHUM8Txj-17" target="YZU04UB36HN_YHUM8Txj-24">
          <mxGeometry relative="1" as="geometry" />
        </mxCell>
        <mxCell id="YZU04UB36HN_YHUM8Txj-26" value="One-Way" style="edgeLabel;html=1;align=center;verticalAlign=middle;resizable=0;points=[];" vertex="1" connectable="0" parent="YZU04UB36HN_YHUM8Txj-25">
          <mxGeometry x="-0.3223" y="2" relative="1" as="geometry">
            <mxPoint x="-13" y="-2" as="offset" />
          </mxGeometry>
        </mxCell>
        <mxCell id="YZU04UB36HN_YHUM8Txj-17" value="Type of&lt;br&gt;Reservation" style="strokeWidth=2;html=1;shape=mxgraph.flowchart.decision;whiteSpace=wrap;" vertex="1" parent="1">
          <mxGeometry x="375.5" y="370" width="100" height="100" as="geometry" />
        </mxCell>
        <mxCell id="YZU04UB36HN_YHUM8Txj-19" value="receipt_&lt;br&gt;flightType" style="strokeWidth=2;html=1;shape=mxgraph.flowchart.start_2;whiteSpace=wrap;" vertex="1" parent="1">
          <mxGeometry x="570" y="390" width="60" height="60" as="geometry" />
        </mxCell>
        <mxCell id="YZU04UB36HN_YHUM8Txj-24" value="receipt_&lt;br&gt;flightType" style="strokeWidth=2;html=1;shape=mxgraph.flowchart.start_2;whiteSpace=wrap;" vertex="1" parent="1">
          <mxGeometry x="220" y="390" width="60" height="60" as="geometry" />
        </mxCell>
      </root>
    </mxGraphModel>
  </diagram>
</mxfile>
